<?xml version="1.0" encoding="utf-8"?>

<!DOCTYPE svg PUBLIC "-//W3C//DTD SVG 1.1//EN" "http://www.w3.org/Graphics/SVG/1.1/DTD/svg11.dtd">
<!-- Uploaded to: SVG Repo, www.svgrepo.com, Generator: SVG Repo Mixer Tools -->
<svg width="800px" height="800px" viewBox="0 0 16 16" version="1.1" xmlns="http://www.w3.org/2000/svg" xmlns:xlink="http://www.w3.org/1999/xlink">
<path fill="#444" d="M14 7v-1h-1v-1h-1v1h-0.5v1h0.5v3.56c0 1 0.56 1.44 2 1.44v-1c-0.055 0.012-0.119 0.019-0.185 0.019-0.359 0-0.669-0.21-0.813-0.514l-0.002-3.505h1z"></path>
<path fill="#444" d="M9 3h1v9h-1v-9z"></path>
<path fill="#444" d="M3 12l0.57-2h2.82l0.61 2h1l-2.27-8h-1.46l-2.27 8h1zM5 5.1l1.11 3.9h-2.22z"></path>
</svg>